# xmcd CD database file
#
# Track frame offsets:
#	150
#	22277
#	47240
#	69312
#	91562
#	122405
#	147760
#	169092
#	190367
#	207597
#
# Disc length: 3067 seconds
#
# Revision: 1
# Processed by: cddbd v1.5.1PL0 Copyright (c) Steve Scherf et al.
# Submitted via: CDex 1.51
#
DISCID=8b0bf90a
DTITLE=Layona - Spice
DYEAR=2005
DGENRE=Vocal
TTITLE0=Have Mer-Sea
TTITLE1=太陽は知っている
TTITLE2=夢に吹く風
TTITLE3=Always With Me
TTITLE4=R185
TTITLE5=Unity
TTITLE6=Searchin'
TTITLE7=新世界(album version)
TTITLE8=Golden Rice
TTITLE9=Eternity
EXTD=YEAR: 2005
EXTT0=
EXTT1=
EXTT2=
EXTT3=
EXTT4=
EXTT5=
EXTT6=
EXTT7=
EXTT8=
EXTT9=
PLAYORDER=
